<svg xmlns="http://www.w3.org/2000/svg" width="13" height="13" viewBox="0 0 13 13">
  <!-- Folder base -->
  <path d="M1 3.5C1 2.67 1.67 2 2.5 2H5L6 3.5H10.5C11.33 3.5 12 4.17 12 5V10C12 10.83 11.33 11.5 10.5 11.5H2.5C1.67 11.5 1 10.83 1 10V3.5Z" fill="#AFB1B3"/>
  <!-- Flame -->
  <path d="M6.5 4.5C6.5 4.5 5 6 5 7.5C5 8.5 5.5 9.5 6.5 9.5C7.5 9.5 8 8.5 8 7.5C8 6 6.5 4.5 6.5 4.5Z" fill="#FF6B00"/>
  <path d="M6.5 5.5C6.5 5.5 5.8 6.5 5.8 7.3C5.8 8 6.1 8.5 6.5 8.5C6.9 8.5 7.2 8 7.2 7.3C7.2 6.5 6.5 5.5 6.5 5.5Z" fill="#FFD93D"/>
</svg>
